<mxfile host="app.diagrams.net" modified="2022-12-11T12:32:41.317Z" agent="5.0 (X11)" etag="mdA0WamN5yz8D8omvKBc" version="20.6.2" type="github">
  <diagram id="LnV7Q4egvxKXvry7iycM" name="Page-1">
    <mxGraphModel dx="1296" dy="1818" grid="1" gridSize="10" guides="1" tooltips="1" connect="1" arrows="1" fold="1" page="1" pageScale="1" pageWidth="850" pageHeight="1100" math="0" shadow="0">
      <root>
        <mxCell id="0" />
        <mxCell id="1" parent="0" />
        <mxCell id="qJtQWTxfJOTgb9Qh6GYz-1" value="MPLS 3D" style="outlineConnect=0;dashed=0;verticalLabelPosition=bottom;verticalAlign=top;align=center;html=1;shape=mxgraph.aws3.router;fillColor=#F58536;gradientColor=none;" parent="1" vertex="1">
          <mxGeometry x="120" y="179" width="69" height="72" as="geometry" />
        </mxCell>
        <mxCell id="qJtQWTxfJOTgb9Qh6GYz-2" value="HP.IDC.Winter.113" style="sketch=0;points=[[0.015,0.015,0],[0.985,0.015,0],[0.985,0.985,0],[0.015,0.985,0],[0.25,0,0],[0.5,0,0],[0.75,0,0],[1,0.25,0],[1,0.5,0],[1,0.75,0],[0.75,1,0],[0.5,1,0],[0.25,1,0],[0,0.75,0],[0,0.5,0],[0,0.25,0]];verticalLabelPosition=bottom;html=1;verticalAlign=top;aspect=fixed;align=center;pointerEvents=1;shape=mxgraph.cisco19.rect;prIcon=l2_switch;fillColor=#FAFAFA;strokeColor=#005073;" parent="1" vertex="1">
          <mxGeometry x="375" y="190" width="50" height="50" as="geometry" />
        </mxCell>
        <mxCell id="qJtQWTxfJOTgb9Qh6GYz-3" value="Juniper IDC.L3.MMR&amp;nbsp; " style="sketch=0;points=[[0.015,0.015,0],[0.985,0.015,0],[0.985,0.985,0],[0.015,0.985,0],[0.25,0,0],[0.5,0,0],[0.75,0,0],[1,0.25,0],[1,0.5,0],[1,0.75,0],[0.75,1,0],[0.5,1,0],[0.25,1,0],[0,0.75,0],[0,0.5,0],[0,0.25,0]];verticalLabelPosition=bottom;html=1;verticalAlign=top;aspect=fixed;align=center;pointerEvents=1;shape=mxgraph.cisco19.rect;prIcon=l2_switch;fillColor=#FAFAFA;strokeColor=#005073;" parent="1" vertex="1">
          <mxGeometry x="510" y="190" width="50" height="50" as="geometry" />
        </mxCell>
        <mxCell id="qJtQWTxfJOTgb9Qh6GYz-4" value="Alicia" style="outlineConnect=0;dashed=0;verticalLabelPosition=bottom;verticalAlign=top;align=center;html=1;shape=mxgraph.aws3.router;fillColor=#F58536;gradientColor=none;" parent="1" vertex="1">
          <mxGeometry x="270.5" y="-42" width="69" height="72" as="geometry" />
        </mxCell>
        <mxCell id="qJtQWTxfJOTgb9Qh6GYz-5" value="Aura" style="outlineConnect=0;dashed=0;verticalLabelPosition=bottom;verticalAlign=top;align=center;html=1;shape=mxgraph.aws3.router;fillColor=#F58536;gradientColor=none;" parent="1" vertex="1">
          <mxGeometry x="365.5" y="-42" width="69" height="72" as="geometry" />
        </mxCell>
        <mxCell id="qJtQWTxfJOTgb9Qh6GYz-6" value="Diana" style="outlineConnect=0;dashed=0;verticalLabelPosition=bottom;verticalAlign=top;align=center;html=1;shape=mxgraph.aws3.router;fillColor=#F58536;gradientColor=none;" parent="1" vertex="1">
          <mxGeometry x="330.5" y="470" width="50" height="50" as="geometry" />
        </mxCell>
        <mxCell id="qJtQWTxfJOTgb9Qh6GYz-7" value="Jengkelin" style="outlineConnect=0;dashed=0;verticalLabelPosition=bottom;verticalAlign=top;align=center;html=1;shape=mxgraph.aws3.router;fillColor=#F58536;gradientColor=none;" parent="1" vertex="1">
          <mxGeometry x="419.5" y="470" width="50" height="50" as="geometry" />
        </mxCell>
        <mxCell id="qJtQWTxfJOTgb9Qh6GYz-8" value="" style="endArrow=classic;startArrow=classic;html=1;rounded=0;entryX=0;entryY=0.5;entryDx=0;entryDy=0;entryPerimeter=0;" parent="1" source="qJtQWTxfJOTgb9Qh6GYz-1" target="qJtQWTxfJOTgb9Qh6GYz-2" edge="1">
          <mxGeometry width="50" height="50" relative="1" as="geometry">
            <mxPoint x="300" y="250" as="sourcePoint" />
            <mxPoint x="350" y="200" as="targetPoint" />
          </mxGeometry>
        </mxCell>
        <mxCell id="qJtQWTxfJOTgb9Qh6GYz-10" value="" style="endArrow=classic;startArrow=classic;html=1;rounded=0;entryX=0.5;entryY=0;entryDx=0;entryDy=0;entryPerimeter=0;exitX=0.5;exitY=1;exitDx=0;exitDy=0;exitPerimeter=0;" parent="1" source="qJtQWTxfJOTgb9Qh6GYz-4" target="qJtQWTxfJOTgb9Qh6GYz-2" edge="1">
          <mxGeometry width="50" height="50" relative="1" as="geometry">
            <mxPoint x="280" y="290" as="sourcePoint" />
            <mxPoint x="330" y="240" as="targetPoint" />
          </mxGeometry>
        </mxCell>
        <mxCell id="qJtQWTxfJOTgb9Qh6GYz-12" value="" style="endArrow=classic;startArrow=classic;html=1;rounded=0;entryX=0.5;entryY=0;entryDx=0;entryDy=0;entryPerimeter=0;exitX=0.5;exitY=1;exitDx=0;exitDy=0;exitPerimeter=0;" parent="1" source="qJtQWTxfJOTgb9Qh6GYz-5" target="qJtQWTxfJOTgb9Qh6GYz-2" edge="1">
          <mxGeometry width="50" height="50" relative="1" as="geometry">
            <mxPoint x="324.5" y="122" as="sourcePoint" />
            <mxPoint x="410" y="200" as="targetPoint" />
          </mxGeometry>
        </mxCell>
        <mxCell id="qJtQWTxfJOTgb9Qh6GYz-13" value="Tiara" style="outlineConnect=0;dashed=0;verticalLabelPosition=bottom;verticalAlign=top;align=center;html=1;shape=mxgraph.aws3.router;fillColor=#F58536;gradientColor=none;" parent="1" vertex="1">
          <mxGeometry x="460.5" y="-42" width="69" height="72" as="geometry" />
        </mxCell>
        <mxCell id="qJtQWTxfJOTgb9Qh6GYz-16" value="" style="endArrow=classic;startArrow=classic;html=1;rounded=0;exitX=0.5;exitY=1;exitDx=0;exitDy=0;exitPerimeter=0;" parent="1" source="qJtQWTxfJOTgb9Qh6GYz-13" edge="1">
          <mxGeometry width="50" height="50" relative="1" as="geometry">
            <mxPoint x="409.5" y="112" as="sourcePoint" />
            <mxPoint x="400" y="190" as="targetPoint" />
          </mxGeometry>
        </mxCell>
        <mxCell id="qJtQWTxfJOTgb9Qh6GYz-17" value="" style="endArrow=classic;startArrow=classic;html=1;rounded=0;entryX=0.5;entryY=1;entryDx=0;entryDy=0;entryPerimeter=0;exitX=0.5;exitY=0;exitDx=0;exitDy=0;exitPerimeter=0;" parent="1" source="qJtQWTxfJOTgb9Qh6GYz-6" target="qJtQWTxfJOTgb9Qh6GYz-2" edge="1">
          <mxGeometry width="50" height="50" relative="1" as="geometry">
            <mxPoint x="290" y="310" as="sourcePoint" />
            <mxPoint x="340" y="260" as="targetPoint" />
          </mxGeometry>
        </mxCell>
        <mxCell id="qJtQWTxfJOTgb9Qh6GYz-18" value="" style="endArrow=classic;startArrow=classic;html=1;rounded=0;exitX=0.5;exitY=0;exitDx=0;exitDy=0;exitPerimeter=0;" parent="1" source="qJtQWTxfJOTgb9Qh6GYz-7" edge="1">
          <mxGeometry width="50" height="50" relative="1" as="geometry">
            <mxPoint x="419.5" y="122" as="sourcePoint" />
            <mxPoint x="400" y="240" as="targetPoint" />
          </mxGeometry>
        </mxCell>
        <mxCell id="qJtQWTxfJOTgb9Qh6GYz-19" value="" style="endArrow=classic;startArrow=classic;html=1;rounded=0;exitX=1;exitY=0.5;exitDx=0;exitDy=0;exitPerimeter=0;entryX=0;entryY=0.5;entryDx=0;entryDy=0;entryPerimeter=0;" parent="1" source="qJtQWTxfJOTgb9Qh6GYz-2" target="qJtQWTxfJOTgb9Qh6GYz-3" edge="1">
          <mxGeometry width="50" height="50" relative="1" as="geometry">
            <mxPoint x="560" y="340" as="sourcePoint" />
            <mxPoint x="610" y="290" as="targetPoint" />
          </mxGeometry>
        </mxCell>
        <mxCell id="vkbnPRiljVwtOliV_6GT-8" value="Vendor" style="triangle;whiteSpace=wrap;html=1;" vertex="1" parent="1">
          <mxGeometry x="670" y="179" width="60" height="80" as="geometry" />
        </mxCell>
        <mxCell id="vkbnPRiljVwtOliV_6GT-9" value="" style="endArrow=classic;startArrow=classic;html=1;rounded=0;exitX=1;exitY=0.5;exitDx=0;exitDy=0;exitPerimeter=0;entryX=0;entryY=0.5;entryDx=0;entryDy=0;" edge="1" parent="1" source="qJtQWTxfJOTgb9Qh6GYz-3" target="vkbnPRiljVwtOliV_6GT-8">
          <mxGeometry width="50" height="50" relative="1" as="geometry">
            <mxPoint x="600" y="240" as="sourcePoint" />
            <mxPoint x="660" y="210" as="targetPoint" />
          </mxGeometry>
        </mxCell>
        <mxCell id="vkbnPRiljVwtOliV_6GT-11" value="" style="group" vertex="1" connectable="0" parent="1">
          <mxGeometry x="739.9985714285715" y="30" width="241.07142857142844" height="400" as="geometry" />
        </mxCell>
        <mxCell id="qJtQWTxfJOTgb9Qh6GYz-26" value="ISAT" style="rhombus;whiteSpace=wrap;html=1;" parent="vkbnPRiljVwtOliV_6GT-11" vertex="1">
          <mxGeometry y="100" width="80.35714285714283" height="100" as="geometry" />
        </mxCell>
        <mxCell id="qJtQWTxfJOTgb9Qh6GYz-27" value="Gastra" style="rhombus;whiteSpace=wrap;html=1;" parent="vkbnPRiljVwtOliV_6GT-11" vertex="1">
          <mxGeometry x="0.004285714285629183" y="200" width="80.35714285714283" height="100" as="geometry" />
        </mxCell>
        <mxCell id="qJtQWTxfJOTgb9Qh6GYz-28" value="Cyberplus" style="rhombus;whiteSpace=wrap;html=1;" parent="vkbnPRiljVwtOliV_6GT-11" vertex="1">
          <mxGeometry x="0.004285714285629183" y="300" width="80.35714285714283" height="100" as="geometry" />
        </mxCell>
        <mxCell id="qJtQWTxfJOTgb9Qh6GYz-25" value="ICON" style="rhombus;whiteSpace=wrap;html=1;" parent="vkbnPRiljVwtOliV_6GT-11" vertex="1">
          <mxGeometry x="0.0014285714285051654" width="80.36" height="100" as="geometry" />
        </mxCell>
        <mxCell id="vkbnPRiljVwtOliV_6GT-2" value="JLM" style="rhombus;whiteSpace=wrap;html=1;" vertex="1" parent="vkbnPRiljVwtOliV_6GT-11">
          <mxGeometry x="80.35428571428565" width="80.35714285714283" height="100" as="geometry" />
        </mxCell>
        <mxCell id="vkbnPRiljVwtOliV_6GT-3" value="HYPERNET" style="rhombus;whiteSpace=wrap;html=1;" vertex="1" parent="vkbnPRiljVwtOliV_6GT-11">
          <mxGeometry x="80.35428571428565" y="100" width="80.35714285714283" height="100" as="geometry" />
        </mxCell>
        <mxCell id="vkbnPRiljVwtOliV_6GT-4" value="Telkom BFIE" style="rhombus;whiteSpace=wrap;html=1;" vertex="1" parent="vkbnPRiljVwtOliV_6GT-11">
          <mxGeometry x="80.35428571428565" y="200" width="80.35714285714283" height="100" as="geometry" />
        </mxCell>
        <mxCell id="vkbnPRiljVwtOliV_6GT-5" value="SBP" style="rhombus;whiteSpace=wrap;html=1;" vertex="1" parent="vkbnPRiljVwtOliV_6GT-11">
          <mxGeometry x="80.35428571428565" y="300" width="80.35714285714283" height="100" as="geometry" />
        </mxCell>
        <mxCell id="vkbnPRiljVwtOliV_6GT-6" value="HSP" style="rhombus;whiteSpace=wrap;html=1;" vertex="1" parent="vkbnPRiljVwtOliV_6GT-11">
          <mxGeometry x="160.71428571428567" width="80.35714285714283" height="100" as="geometry" />
        </mxCell>
        <mxCell id="vkbnPRiljVwtOliV_6GT-7" value="STI" style="rhombus;whiteSpace=wrap;html=1;" vertex="1" parent="vkbnPRiljVwtOliV_6GT-11">
          <mxGeometry x="160.71428571428567" y="100" width="80.35714285714283" height="100" as="geometry" />
        </mxCell>
      </root>
    </mxGraphModel>
  </diagram>
</mxfile>
